<?xml version="1.0" standalone="no"?>
<!DOCTYPE svg PUBLIC "-//W3C//DTD SVG 1.1//EN" "http://www.w3.org/Graphics/SVG/1.1/DTD/svg11.dtd" >
<svg xmlns="http://www.w3.org/2000/svg" xmlns:xlink="http://www.w3.org/1999/xlink" version="1.1">
<metadata>
Created by FontForge 20230101 at Thu Mar 25 17:41:13 2021
 By Unknown
2020
</metadata>
<defs>
<font id="SansSerif-Regular" horiz-adv-x="610" >
  <font-face 
    font-family="Sans Serif"
    font-weight="400"
    font-stretch="normal"
    units-per-em="1000"
    panose-1="0 0 5 0 0 0 0 0 0 0"
    ascent="800"
    descent="-200"
    x-height="500"
    cap-height="700"
    bbox="20 -269.113 930.02 800"
    underline-thickness="50"
    underline-position="-100"
    unicode-range="U+0020-007A"
  />
<missing-glyph horiz-adv-x="500" 
d="M93 800h317v-1000h-317v1000zM333 700v33h-165v-33h65v-37h-66v-33h166v33h-66v37h66zM267 534v70h-100v-104h166v34h-66zM200 570h33v-36h-33v36zM333 440v33h-166v-33h66v-37h-66v-33h100v70h66zM333 313v100h-33v-66h-133v-34h166zM333 178v113h-100v-56h34v23h33v-47
h-100v80h-33v-113h166zM333 5v113h-166v-113h166zM200 85h100v-47h-100v47zM333 -51v33h-166v-33h70l-70 -47v-33h166v33h-102l70 47h32z" />
    <glyph glyph-name=".notdef" horiz-adv-x="500" 
d="M93 800h317v-1000h-317v1000zM333 700v33h-165v-33h65v-37h-66v-33h166v33h-66v37h66zM267 534v70h-100v-104h166v34h-66zM200 570h33v-36h-33v36zM333 440v33h-166v-33h66v-37h-66v-33h100v70h66zM333 313v100h-33v-66h-133v-34h166zM333 178v113h-100v-56h34v23h33v-47
h-100v80h-33v-113h166zM333 5v113h-166v-113h166zM200 85h100v-47h-100v47zM333 -51v33h-166v-33h70l-70 -47v-33h166v33h-102l70 47h32z" />
    <glyph glyph-name=".null" horiz-adv-x="0" 
 />
    <glyph glyph-name="nonmarkingreturn" horiz-adv-x="333" 
 />
    <glyph glyph-name="space" unicode=" " horiz-adv-x="350" 
 />
    <glyph glyph-name="comma" unicode="," horiz-adv-x="203" 
d="M102 100q27 0 41.5 -21t14.5 -57q0 -60 -64 -129l-34 27q30 38 42 70q-25 -1 -41 15t-16 39q0 24 16.5 40t40.5 16z" />
    <glyph glyph-name="hyphen" unicode="-" horiz-adv-x="410" 
d="M45 319v70h320v-70h-320z" />
    <glyph glyph-name="period" unicode="." horiz-adv-x="200" 
d="M99 -10q-22 0 -38 16t-16 39t16 39t38 16q23 0 39.5 -16t16.5 -39q0 -22 -16.5 -38.5t-39.5 -16.5z" />
    <glyph glyph-name="zero" unicode="0" horiz-adv-x="700" 
d="M355 -15q-128 0 -219 105t-91 260t91 260t219 105q121 0 210.5 -105.5t89.5 -259.5t-89.5 -259.5t-210.5 -105.5zM355 55q85 0 150 85.5t65 209.5t-65 209.5t-150 85.5q-92 0 -158.5 -85t-66.5 -210t66.5 -210t158.5 -85z" />
    <glyph glyph-name="one" unicode="1" horiz-adv-x="357" 
d="M226 700v-630h86v-70h-267v70h96v501h-96v60q96 0 96 69h85z" />
    <glyph glyph-name="two" unicode="2" horiz-adv-x="600" 
d="M149 70h391v-70h-480v70q1 230 232 288q38 9 61.5 17.5t48 22.5t36.5 36t12 51q0 61 -39 103t-105 42q-65 0 -110.5 -42.5t-45.5 -102.5h-85q0 88 69 151.5t172 63.5q102 0 165.5 -62t63.5 -153q0 -48 -18.5 -84.5t-55 -60t-69.5 -37t-81 -26.5q-38 -10 -63 -21.5
t-50 -33.5t-37 -60t-12 -92z" />
    <glyph glyph-name="three" unicode="3" horiz-adv-x="640" 
d="M480 375q115 -56 115 -185q0 -92 -70.5 -148.5t-200.5 -56.5q-131 0 -205 56.5t-74 148.5h85q0 -61 49.5 -98t144.5 -37q93 0 139.5 36.5t46.5 98.5q0 144 -185 145h-76v70h76q73 0 114 33.5t41 87.5q0 53 -40.5 86t-114.5 33t-119.5 -33.5t-45.5 -85.5h-85
q0 82 69.5 135.5t180.5 53.5q109 0 174.5 -53.5t65.5 -135.5q0 -98 -85 -151z" />
    <glyph glyph-name="four" unicode="4" horiz-adv-x="638" 
d="M471 224h87v-70h-87v-154h-85v154h-341v70l341 476h85v-476zM386 587l-259 -363h259v363z" />
    <glyph glyph-name="five" unicode="5" horiz-adv-x="620" 
d="M168 440h138q129 -2 199 -56t70 -153q0 -103 -72.5 -167t-197.5 -64q-122 0 -191 62t-69 153h85q0 -63 45 -104t130 -41q88 0 136.5 43t48.5 112q0 68 -47.5 106.5t-136.5 38.5h-229l28 330h426v-70h-347z" />
    <glyph glyph-name="six" unicode="6" horiz-adv-x="620" 
d="M333 424q110 -2 176 -60t66 -160q0 -98 -72.5 -159t-197.5 -61q-122 0 -191 62t-69 153q0 24 2 41.5t11 42t17.5 42t33.5 58.5t46 74t67 105t87 137h92l-182 -292q46 17 114 17zM305 54q88 0 136.5 41t48.5 109q0 150 -184 150q-95 0 -135.5 -39t-40.5 -116
q0 -63 45 -104t130 -41z" />
    <glyph glyph-name="seven" unicode="7" horiz-adv-x="576" 
d="M45 630v70h486v-70l-322 -630h-95l325 630h-394z" />
    <glyph glyph-name="eight" unicode="8" horiz-adv-x="660" 
d="M498 374q117 -53 117 -184q0 -93 -72 -149t-209 -56q-138 0 -213.5 56.5t-75.5 148.5q0 131 125 186q-95 55 -95 150q0 83 71 136t189 53q116 0 183 -53t67 -136q0 -98 -87 -152zM160 526q0 -53 47.5 -87t127.5 -34q79 0 122 33.5t43 87.5t-42 86.5t-123 32.5t-128 -33
t-47 -86zM334 55q100 0 148 36.5t48 98.5q0 145 -195 145q-102 0 -153.5 -38t-51.5 -107q0 -62 51.5 -98.5t152.5 -36.5z" />
    <glyph glyph-name="nine" unicode="9" horiz-adv-x="620" 
d="M315 715q123 0 191.5 -63.5t68.5 -161.5q0 -27 -1.5 -45t-11 -44.5t-17.5 -42.5t-34 -57.5t-45.5 -70.5t-68 -100.5t-86.5 -129.5h-92l180 271q-48 -16 -108 -16q-113 0 -179.5 59.5t-66.5 175.5q0 99 73 162t197 63zM311 325q93 0 136 38.5t43 126.5q0 70 -45 112.5
t-130 42.5q-88 0 -136.5 -43t-48.5 -112q0 -87 45.5 -126t135.5 -39z" />
    <glyph glyph-name="A" unicode="A" horiz-adv-x="665" 
d="M620 0h-92l-52 154h-293l-53 -154h-85l248 700h85zM331 588l-125 -364h247z" />
    <glyph glyph-name="B" unicode="B" horiz-adv-x="643" 
d="M459 366q139 -41 139 -169q0 -197 -305 -197h-213v700h224q107 0 180.5 -46.5t73.5 -140.5q0 -108 -99 -147zM304 630h-139v-232h95q43 0 69 1.5t56.5 7.5t47 18t28 34t11.5 54q0 117 -168 117zM165 70h128q42 0 73 2.5t60 10.5t47 22t28.5 37t10.5 55q0 78 -60.5 104.5
t-191.5 26.5h-95v-258z" />
    <glyph glyph-name="C" unicode="C" horiz-adv-x="718" 
d="M45 350q0 159 99 262t259 103q93 0 151.5 -33t107.5 -93l-60 -50q-76 106 -199 106q-114 0 -193 -84.5t-79 -210.5t79 -210.5t193 -84.5q131 0 209 107l61 -52q-103 -125 -270 -125q-160 0 -259 103t-99 262z" />
    <glyph glyph-name="D" unicode="D" horiz-adv-x="735" 
d="M302 700q191 0 289.5 -98t98.5 -252t-98.5 -252t-289.5 -98h-222v700h222zM165 70h137q147 0 224.5 75t77.5 205t-77.5 205t-224.5 75h-137v-560z" />
    <glyph glyph-name="E" unicode="E" horiz-adv-x="644" 
d="M165 328v-258h419v-70h-504v700h494v-70h-409v-232h369v-70h-369z" />
    <glyph glyph-name="F" unicode="F" horiz-adv-x="619" 
d="M574 700v-70h-409v-232h369v-70h-369v-328h-85v700h494z" />
    <glyph glyph-name="G" unicode="G" horiz-adv-x="749" 
d="M387 298v70h306v-256q-106 -127 -284 -127q-164 0 -264 103t-100 262t99 262t259 103q93 0 151.5 -33t107.5 -93l-60 -50q-76 106 -199 106q-114 0 -193 -84.5t-79 -210.5t80 -210.5t198 -84.5q59 0 112.5 22.5t86.5 57.5v163h-221z" />
    <glyph glyph-name="H" unicode="H" horiz-adv-x="720" 
d="M555 388v312h85v-700h-85v318h-390v-318h-85v700h85v-312h390z" />
    <glyph glyph-name="I" unicode="I" horiz-adv-x="245" 
d="M80 0v700h85v-700h-85z" />
    <glyph glyph-name="J" unicode="J" horiz-adv-x="343" 
d="M263 700v-486q-5 -224 -218 -224v70q22 0 43 7t44 23t37 51t14 84v405h-138v70h218z" />
    <glyph glyph-name="K" unicode="K" horiz-adv-x="696" 
d="M662 0h-118l-311 313l-68 -66v-247h-85v700h85v-348l361 348h108l-340 -329z" />
    <glyph glyph-name="L" unicode="L" horiz-adv-x="629" 
d="M165 700v-630h419v-70h-504v700h85z" />
    <glyph glyph-name="M" unicode="M" horiz-adv-x="890" 
d="M437 315l268 385h85v-700h-85v469l8 121l-58 -100l-197 -275h-54l-198 275l-53 94l7 -115v-469h-80v700h80z" />
    <glyph glyph-name="N" unicode="N" horiz-adv-x="720" 
d="M560 224v476h80v-700h-80l-339 469l-68 112l7 -112v-469h-80v700h80l345 -476l63 -107z" />
    <glyph glyph-name="O" unicode="O" horiz-adv-x="750" 
d="M375 -15q-142 0 -236 104t-94 261t94 261t236 104t236 -104t94 -261t-94 -261t-236 -104zM375 55q105 0 175 84t70 211t-70 211t-175 84t-175 -84t-70 -211t70 -211t175 -84z" />
    <glyph glyph-name="P" unicode="P" horiz-adv-x="634" 
d="M262 700q169 0 253.5 -60t84.5 -170t-84.5 -170t-253.5 -60h-97v-240h-85v700h182zM165 310h97q125 0 188.5 37t63.5 123t-63.5 123t-188.5 37h-97v-320z" />
    <glyph glyph-name="Q" unicode="Q" horiz-adv-x="750" 
d="M705 350q0 -173 -113 -280l85 -105h-109l-45 56q-69 -36 -148 -36q-142 0 -236 104t-94 261t94 261t236 104t236 -104t94 -261zM375 55q53 0 101 24l-114 142h109l72 -90q77 85 77 219q0 127 -70 211t-175 84t-175 -84t-70 -211t70 -211t175 -84z" />
    <glyph glyph-name="R" unicode="R" horiz-adv-x="675" 
d="M440 267l190 -267h-104l-176 246q-44 -6 -98 -6h-87v-240h-85v700h172q169 0 253.5 -60t84.5 -170q0 -150 -150 -203zM165 630v-320h87q125 0 188.5 37t63.5 123t-63.5 123t-188.5 37h-87z" />
    <glyph glyph-name="S" unicode="S" horiz-adv-x="693" 
d="M347 -15q-106 0 -184.5 31.5t-117.5 69.5l57 54q28 -30 98 -56t147 -26q86 0 150 33.5t63 95.5q-2 29 -20.5 51t-52 37t-66 24.5t-75.5 17.5q-45 8 -79.5 17t-75 26t-66.5 38t-44 54.5t-18 74.5q0 66 41 109.5t102 61t138 17.5q182 0 285 -126l-59 -52q-30 41 -89 73
t-137 32q-47 0 -89 -10t-73.5 -36.5t-31.5 -65.5q0 -28 16 -48.5t48.5 -34.5t63.5 -22.5t78 -17.5q46 -9 80 -17.5t76.5 -26t70 -39t46.5 -55.5t19 -77q0 -70 -44 -118t-110 -68.5t-147 -20.5z" />
    <glyph glyph-name="T" unicode="T" horiz-adv-x="650" 
d="M605 700v-70h-237v-630h-85v630h-238v70h560z" />
    <glyph glyph-name="U" unicode="U" horiz-adv-x="720" 
d="M560 300v400h80v-401q0 -152 -80 -233t-198 -81t-199.5 82t-82.5 230v403h85v-400q0 -119 57.5 -182t139.5 -63q36 0 69 13t63 40t48 76.5t18 115.5z" />
    <glyph glyph-name="V" unicode="V" horiz-adv-x="665" 
d="M334 105l212 595h85l-258 -700h-87l-252 700h92z" />
    <glyph glyph-name="W" unicode="W" horiz-adv-x="956" 
d="M686 137l151 563h85l-197 -700h-85l-160 559l-153 -559h-85l-208 700h92l162 -564l152 564h84z" />
    <glyph glyph-name="X" unicode="X" horiz-adv-x="704" 
d="M408 350l262 -350h-103l-223 298l-212 -298h-98l265 358l-255 342h102l218 -291l196 291h97z" />
    <glyph glyph-name="Y" unicode="Y" horiz-adv-x="663" 
d="M333 343l205 357h91l-258 -432v-268h-85v268l-252 432h96z" />
    <glyph glyph-name="Z" unicode="Z" horiz-adv-x="740" 
d="M655 630l-467 -560h472v-70h-580v70l468 560h-448v70h555v-70z" />
    <glyph glyph-name="a" unicode="a" horiz-adv-x="649" 
d="M572 70h32v-70h-42q-85 0 -103 69q-68 -84 -169 -84q-110 0 -180 75t-70 190t70 190t180 75q98 0 165 -78v63h85v-394q0 -36 32 -36zM290 55q70 0 117.5 58t47.5 137t-47.5 137t-117.5 58q-72 0 -118.5 -57.5t-46.5 -137.5t46.5 -137.5t118.5 -57.5z" />
    <glyph glyph-name="b" unicode="b" 
d="M340 514q96 0 163 -76t67 -189t-67 -189t-163 -76q-115 0 -180 92v-76h-85v800h85v-379q66 93 180 93zM320 54q70 0 117.5 58t47.5 137t-47.5 137t-117.5 58q-72 0 -118.5 -57.5t-46.5 -137.5q0 -81 46 -138t119 -57z" />
    <glyph glyph-name="c" unicode="c" horiz-adv-x="536" 
d="M40 250q0 115 72 190t188 75q68 0 110.5 -24t77.5 -67l-55 -47q-26 36 -56 52t-77 16q-79 0 -127 -57t-48 -138t48 -138t127 -57q53 0 84 16t57 52l55 -47q-74 -91 -196 -91q-116 0 -188 75t-72 190z" />
    <glyph glyph-name="d" unicode="d" 
d="M450 421v379h85v-800h-85v76q-65 -92 -180 -92q-96 0 -163 76t-67 189t67 189t163 76q114 0 180 -93zM290 54q73 0 119 57t46 138q0 80 -46.5 137.5t-118.5 57.5q-70 0 -117.5 -58t-47.5 -137t47.5 -137t117.5 -58z" />
    <glyph glyph-name="e" unicode="e" horiz-adv-x="580" 
d="M538 215h-410q10 -69 56 -114.5t116 -45.5q61 0 100 22.5t73 59.5l50 -50q-26 -29 -49.5 -48t-70.5 -36.5t-103 -17.5q-116 0 -188 75t-72 190t70 190t180 75t180 -75t70 -190q0 -11 -2 -35zM128 285h324q-10 68 -55 114t-107 46q-64 0 -108 -45.5t-54 -114.5z" />
    <glyph glyph-name="f" unicode="f" horiz-adv-x="430" 
d="M246 500h144v-70h-144v-430h-85v430h-121v70h121v193q0 55 29 81t78 26h112v-70h-102q-32 0 -32 -36v-194z" />
    <glyph glyph-name="g" unicode="g" 
d="M450 423v76h85v-492q0 -172 -114 -241q-87 -53 -194 -26q-97 25 -140 98q-22 38 -22 82h85q0 -55 60 -91q64 -40 131 -21q86 25 105 135q4 26 4 57v78q-66 -93 -180 -93q-96 0 -163 76t-67 189t67 189t163 76q115 0 180 -92zM290 55q72 0 118.5 57.5t46.5 137.5
q0 81 -46 138t-119 57q-70 0 -117.5 -58t-47.5 -137t47.5 -137t117.5 -58z" />
    <glyph glyph-name="h" unicode="h" horiz-adv-x="640" 
d="M350 515q103 0 159 -81t56 -213v-221h-85v211q0 125 -38 179.5t-118 54.5q-164 0 -164 -280v-165h-85v800h85v-414q51 129 190 129z" />
    <glyph glyph-name="i" unicode="i" horiz-adv-x="312" 
d="M149 648q-22 0 -38 16t-16 39t16 39t38 16q23 0 39.5 -16.5t16.5 -38.5t-16.5 -38.5t-39.5 -16.5zM235 70h32v-70h-42q-49 0 -78 26t-29 81v323h-43v70h128v-394q0 -36 32 -36z" />
    <glyph glyph-name="j" unicode="j" horiz-adv-x="328" 
d="M192 648q-23 0 -39.5 16.5t-16.5 38.5t16.5 38.5t39.5 16.5q22 0 38 -16t16 -39t-16 -39t-38 -16zM253 500v-505q-3 -97 -50.5 -146t-127.5 -49v80q40 0 66.5 31.5t26.5 94.5v424h-93v70h178z" />
    <glyph glyph-name="k" unicode="k" horiz-adv-x="587" 
d="M567 0h-118l-221 222l-68 -65v-157h-85v800h85v-538l247 238h108l-227 -219z" />
    <glyph glyph-name="l" unicode="l" horiz-adv-x="269" 
d="M75 107v693h85v-694q0 -36 32 -36h32v-70h-42q-49 0 -78 26t-29 81z" />
    <glyph glyph-name="m" unicode="m" horiz-adv-x="1005" 
d="M735 515q97 0 146.5 -80.5t48.5 -213.5v-221h-85v211q0 126 -32.5 180t-103.5 54q-164 0 -164 -280v-165h-85v211q0 126 -32.5 180t-103.5 54q-164 0 -164 -280v-165h-85v500h85v-114q51 129 190 129q128 0 173 -138q53 138 212 138z" />
    <glyph glyph-name="n" unicode="n" horiz-adv-x="640" 
d="M360 515q102 0 153.5 -80t51.5 -214v-221h-85v211q0 124 -36.5 179t-109.5 55q-81 0 -127.5 -68.5t-46.5 -211.5v-165h-85v500h85v-124q55 139 200 139z" />
    <glyph glyph-name="o" unicode="o" horiz-adv-x="580" 
d="M290 -15q-110 0 -180 75t-70 190t70 190t180 75t180 -75t70 -190q0 -114 -71 -189.5t-179 -75.5zM290 55q70 0 117.5 58t47.5 137t-47.5 137t-117.5 58q-72 0 -118.5 -57.5t-46.5 -137.5t46.5 -137.5t118.5 -57.5z" />
    <glyph glyph-name="p" unicode="p" 
d="M340 515q96 0 163 -76t67 -189t-67 -189t-163 -76q-114 0 -180 93v-278h-85v699h85v-76q65 92 180 92zM320 55q70 0 117.5 58t47.5 137t-47.5 137t-117.5 58q-73 0 -119 -57t-46 -138q0 -80 46.5 -137.5t118.5 -57.5z" />
    <glyph glyph-name="q" unicode="q" 
d="M450 423v76h85v-699h-85v278q-66 -93 -180 -93q-96 0 -163 76t-67 189t67 189t163 76q115 0 180 -92zM290 55q72 0 118.5 57.5t46.5 137.5q0 81 -46 138t-119 57q-70 0 -117.5 -58t-47.5 -137t47.5 -137t117.5 -58z" />
    <glyph glyph-name="r" unicode="r" horiz-adv-x="430" 
d="M160 500v-132q56 137 230 137v-70q-125 0 -177.5 -65t-52.5 -215v-155h-85v500h85z" />
    <glyph glyph-name="s" unicode="s" horiz-adv-x="540" 
d="M421 136q0 24 -22.5 41t-49.5 25.5t-75 18.5q-39 9 -63 15t-57 19.5t-51 28t-31.5 39t-13.5 54.5q0 51 35 83.5t80 43.5t97 11q141 0 215 -91l-55 -47q-23 32 -70.5 50t-89.5 18q-27 0 -54.5 -4.5t-52.5 -20.5t-25 -40q0 -31 35.5 -47.5t110.5 -31.5q44 -9 78 -20.5
t67.5 -30t52 -48t18.5 -66.5q0 -52 -37 -87.5t-87 -49.5t-106 -14q-74 0 -136 26t-94 65l55 47q23 -31 75.5 -49.5t99.5 -18.5q22 0 46 4.5t49 13t40.5 25t15.5 38.5z" />
    <glyph glyph-name="t" unicode="t" horiz-adv-x="430" 
d="M390 500v-70h-144v-324q0 -36 32 -36h102v-70h-112q-49 0 -78 26t-29 81v323h-121v70h121v240h85v-240h144z" />
    <glyph glyph-name="u" unicode="u" horiz-adv-x="620" 
d="M460 335v165h85v-500h-85v124q-55 -139 -200 -139q-90 0 -137.5 68t-47.5 186v261h85v-251q0 -105 30.5 -149.5t95.5 -44.5q81 0 127.5 68.5t46.5 211.5z" />
    <glyph glyph-name="v" unicode="v" horiz-adv-x="530" 
d="M268 92l157 408h85l-201 -500h-85l-204 500h92z" />
    <glyph glyph-name="w" unicode="w" horiz-adv-x="928" 
d="M666 92l157 408h85l-201 -500h-85l-156 399l-157 -399h-85l-204 500h92l156 -408l158 408h84z" />
    <glyph glyph-name="x" unicode="x" horiz-adv-x="530" 
d="M315 256l195 -256h-95l-155 204l-152 -204h-88l199 257l-184 243h95l146 -192l131 192h88z" />
    <glyph glyph-name="y" unicode="y" horiz-adv-x="530" 
d="M268 92l157 408h85l-201 -500l-37 -93q-24 -57 -57 -82t-80 -25h-79v70h75q46 0 66 46l30 76l-207 508h92z" />
    <glyph glyph-name="z" unicode="z" horiz-adv-x="613" 
d="M532 430l-352 -360h358v-70h-463v70l352 360h-332v70h437v-70z" />
    <glyph glyph-name="a.ss01" horiz-adv-x="654" 
d="M547 70h32v-70h-42q-80 0 -101 62q-51 -77 -151 -77q-210 0 -210 164q0 166 190 166q71 0 165 -16q-8 146 -125 146q-60 0 -93 -17t-60 -51l-55 47q24 27 45 44t64 32t99 15q102 0 156 -60t54 -174v-175q0 -36 32 -36zM285 55q87 0 145 84v90q-94 16 -165 16
q-54 0 -79.5 -28.5t-25.5 -67.5q0 -38 34 -66t91 -28z" />
    </font>
</defs>
</svg>
